<svg width="70" height="70" viewBox="0 0 70 70" fill="none" xmlns="http://www.w3.org/2000/svg">
<path fill-rule="evenodd" clip-rule="evenodd" d="M56.875 11.6667H13.125C12.3196 11.6667 11.6667 12.3196 11.6667 13.125V56.875C11.6667 57.6804 12.3196 58.3333 13.125 58.3333H56.875C57.6804 58.3333 58.3333 57.6804 58.3333 56.875V13.125C58.3333 12.3196 57.6804 11.6667 56.875 11.6667ZM13.125 8.75C10.7088 8.75 8.75 10.7088 8.75 13.125V56.875C8.75 59.2913 10.7088 61.25 13.125 61.25H56.875C59.2913 61.25 61.25 59.2913 61.25 56.875V13.125C61.25 10.7088 59.2913 8.75 56.875 8.75H13.125Z" fill="#E9F7F8" fill-opacity="0.85"/>
<path fill-rule="evenodd" clip-rule="evenodd" d="M25.2499 9.98242C25.2499 10.216 25.2509 15.4538 25.253 15.6632C25.3021 20.9244 25.9831 23.5035 27.3207 24.8818C28.4956 26.0925 30.4761 26.6784 34.1955 26.7884C34.4899 23.8195 35.6739 21.4506 37.4138 19.7629C39.4163 17.8205 42.0681 16.8659 44.6928 16.8659C47.3177 16.8659 49.9694 17.8205 51.972 19.7629C53.9916 21.7219 55.2621 24.5987 55.2621 28.266V40.4171C55.2621 43.8511 54.6919 47.4843 52.9254 50.3046C51.0929 53.2302 48.0614 55.1313 43.5782 55.1313C38.9651 55.1313 35.7627 52.3857 32.9331 49.9443L32.843 49.8664C29.9621 47.3805 27.3716 45.145 23.6982 44.6377C22.1556 44.6537 21.0834 45.0673 20.3128 45.6317C19.513 46.2176 18.9388 47.0396 18.5327 47.9901C17.7024 49.9332 17.675 52.1722 17.7151 53.1342C17.7231 53.325 17.7272 55.3919 17.7301 57.3342C17.7315 58.3225 17.7326 59.3012 17.7332 60.0327L17.7342 61.2477L14.8176 61.2509L14.8165 60.0355C14.816 59.3041 14.8148 58.326 14.8135 57.3384C14.812 56.3507 14.8101 55.3542 14.8079 54.586C14.8068 54.2016 14.8056 53.8755 14.8041 53.6365C14.8036 53.5167 14.8028 53.4203 14.8021 53.3501C14.8017 53.3025 14.8012 53.2754 14.8011 53.2626C14.8009 53.2532 14.8009 53.2516 14.8011 53.2557C14.7556 52.165 14.7601 49.3959 15.8506 46.844C16.4048 45.5471 17.2633 44.25 18.5894 43.2787C19.9296 42.2971 21.6496 41.7204 23.7916 41.7204C24.3673 41.7204 24.8997 41.7334 25.4058 41.7457C26.3273 41.768 27.1615 41.7882 28.012 41.7245C29.2535 41.6315 30.2292 41.364 31.0229 40.7692C32.5198 39.6471 33.9417 36.8976 34.1077 29.7048C30.2463 29.5945 27.2344 28.9809 25.2276 26.9131C22.9965 24.614 22.385 20.8986 22.3364 15.6905C22.3342 15.4628 22.3332 10.2006 22.3332 9.98242H25.2499ZM30.4467 44.2517C31.9625 45.25 33.2987 46.405 34.5424 47.4801C34.6417 47.5659 34.7403 47.6513 34.8386 47.7359C37.7703 50.2655 40.195 52.2146 43.5782 52.2146C47.0911 52.2146 49.1722 50.8018 50.4535 48.7563C51.8007 46.6057 52.3454 43.6112 52.3454 40.4171V28.266C52.3454 25.3056 51.3382 23.2114 49.9412 21.8565C48.5272 20.4849 46.6235 19.7826 44.6928 19.7826C42.7623 19.7826 40.8586 20.4849 39.4446 21.8565C38.0476 23.2114 37.0404 25.3056 37.0404 28.266C37.0404 36.5635 35.6007 40.9829 32.7721 43.1029C32.0349 43.6556 31.2471 44.0166 30.4467 44.2517Z" fill="#E9F7F8" fill-opacity="0.85"/>
<path d="M53.8038 36.551C47.1759 42.2909 43.3096 30.8111 35.0248 36.551L32.8154 40.9696L27.2923 43.7312C27.2923 43.7312 37.7865 53.673 43.862 53.673C49.9376 53.673 54.9085 48.1499 53.8038 36.551Z" fill="#E9F7F8" fill-opacity="0.85"/>
</svg>
