<svg width="70" height="70" viewBox="0 0 70 70" fill="none" xmlns="http://www.w3.org/2000/svg">
<path fill-rule="evenodd" clip-rule="evenodd" d="M56.875 11.6667H13.125C12.3196 11.6667 11.6667 12.3196 11.6667 13.125V56.875C11.6667 57.6804 12.3196 58.3333 13.125 58.3333H56.875C57.6804 58.3333 58.3333 57.6804 58.3333 56.875V13.125C58.3333 12.3196 57.6804 11.6667 56.875 11.6667ZM13.125 8.75C10.7088 8.75 8.75 10.7088 8.75 13.125V56.875C8.75 59.2913 10.7088 61.25 13.125 61.25H56.875C59.2913 61.25 61.25 59.2913 61.25 56.875V13.125C61.25 10.7088 59.2913 8.75 56.875 8.75H13.125Z" fill="#E9F7F8" fill-opacity="0.85"/>
<path fill-rule="evenodd" clip-rule="evenodd" d="M55.4167 35.5834C55.4167 35.5834 44.1875 23.3334 35.0537 23.3334C25.92 23.3334 14.5833 35.5834 14.5833 35.5834C14.5833 35.5834 25.92 47.8334 35.0537 47.8334C44.1875 47.8334 55.4167 35.5834 55.4167 35.5834ZM23.1732 31.7691C21.3981 33.1363 19.8552 34.51 18.7177 35.5834C19.8552 36.6567 21.3981 38.0305 23.1732 39.3976C25.0674 40.8569 27.1706 42.2656 29.2838 43.2994C31.4224 44.3458 33.3868 44.9167 35.0537 44.9167C36.7195 44.9167 38.676 44.3465 40.8024 43.3016C42.9039 42.269 44.9928 40.8617 46.873 39.4036C48.6394 38.0337 50.1726 36.6573 51.3008 35.5834C50.1726 34.5095 48.6394 33.1331 46.873 31.7631C44.9928 30.3051 42.9039 28.8978 40.8024 27.8651C38.676 26.8202 36.7195 26.25 35.0537 26.25C33.3868 26.25 31.4224 26.821 29.2838 27.8673C27.1706 28.9011 25.0674 30.3099 23.1732 31.7691Z" fill="#E9F7F8" fill-opacity="0.85"/>
<path fill-rule="evenodd" clip-rule="evenodd" d="M35 43.8958C39.5908 43.8958 43.3125 40.1741 43.3125 35.5833C43.3125 30.9925 39.5908 27.2708 35 27.2708C30.4092 27.2708 26.6875 30.9925 26.6875 35.5833C26.6875 40.1741 30.4092 43.8958 35 43.8958ZM35 46.8125C41.2017 46.8125 46.2292 41.785 46.2292 35.5833C46.2292 29.3816 41.2017 24.3541 35 24.3541C28.7983 24.3541 23.7708 29.3816 23.7708 35.5833C23.7708 41.785 28.7983 46.8125 35 46.8125Z" fill="#E9F7F8" fill-opacity="0.85"/>
<path fill-rule="evenodd" clip-rule="evenodd" d="M35 40.6875C37.819 40.6875 40.1042 38.4023 40.1042 35.5833C40.1042 34.3157 39.6422 33.156 38.8773 32.2635C39.0082 32.4893 39.0833 32.7515 39.0833 33.0314C39.0833 33.877 38.3978 34.5626 37.5521 34.5626C36.7064 34.5626 36.0208 33.877 36.0208 33.0314C36.0208 32.1857 36.7064 31.5001 37.5521 31.5001C37.8319 31.5001 38.0941 31.5752 38.3199 31.7063C37.4274 30.9413 36.2677 30.4791 35 30.4791C32.181 30.4791 29.8958 32.7643 29.8958 35.5833C29.8958 38.4023 32.181 40.6875 35 40.6875Z" fill="#E9F7F8" fill-opacity="0.85"/>
</svg>
