<svg width="70" height="70" viewBox="0 0 70 70" fill="none" xmlns="http://www.w3.org/2000/svg">
<path fill-rule="evenodd" clip-rule="evenodd" d="M34.3572 16.2251C34.6478 15.9967 46.7839 6.55538 54.8053 15.856C59.2089 20.9619 58.8356 26.2591 57.2015 31.4467L51.4523 47.9157C49.7713 53.6418 48.5727 55.4095 45.6274 57.8972C43.8792 59.3738 41.9075 56.8233 39.8326 54.139C38.0351 51.8135 36.1599 49.3876 34.2851 49.3933C32.3794 49.3991 30.474 51.8288 28.6511 54.1534C26.5487 56.8347 24.5558 59.376 22.7983 57.8972C19.2494 54.9109 17.6931 50.7845 16.0663 44.1625C15.7532 42.8876 15.2768 41.3586 14.7515 39.6723C12.5481 32.6001 9.48321 22.7621 13.9786 17.3041C19.5298 10.5644 26.425 9.47943 34.2837 16.171L34.3572 16.2251ZM30.4793 16.9172C27.7604 15.0489 25.4492 14.4547 23.5241 14.6062C21.1587 14.7921 18.7018 16.1574 16.2299 19.1585C14.371 21.4154 14.1818 25.2282 15.184 30.2095C15.6613 32.5817 16.3577 34.9842 17.059 37.2661C17.2102 37.7584 17.3639 38.2517 17.5163 38.7406C18.0476 40.4455 18.5621 42.0963 18.8988 43.4667C20.3881 49.5292 21.6835 52.7874 24.0333 55.083C24.5184 54.6319 25.1319 53.9072 25.9436 52.8787C26.07 52.7183 26.2013 52.5507 26.3365 52.378C27.168 51.3165 28.1528 50.059 29.1575 49.0538C30.2247 47.986 31.9888 46.4836 34.2764 46.4766C36.5744 46.4696 38.3339 47.9963 39.3794 49.0567C40.3694 50.061 41.3405 51.3188 42.1601 52.3804C42.2941 52.5539 42.4241 52.7222 42.5493 52.8834C43.3444 53.9055 43.9467 54.6271 44.423 55.0784C45.3677 54.2243 45.9804 53.5112 46.5105 52.6243C47.1949 51.4796 47.8323 49.8922 48.6538 47.0941C48.6675 47.0471 48.6825 47.0006 48.6987 46.9543L54.4327 30.5287C55.1824 28.1375 55.5632 25.9539 55.3644 23.9019C55.1709 21.9031 54.4127 19.8667 52.5965 17.7608C49.5858 14.2698 45.8869 14.217 42.3972 15.2985C40.6398 15.843 39.0625 16.6541 37.9073 17.3477C37.4739 17.6079 37.1086 17.8463 36.8251 18.0397L42.4266 22.1583C43.0754 22.6355 43.2146 23.5482 42.7375 24.1971C42.2604 24.846 41.3475 24.9853 40.6987 24.5081L32.7875 18.6911C32.678 18.6214 32.5722 18.5438 32.4708 18.4582L30.7819 17.2165C30.6639 17.1297 30.5629 17.0286 30.4793 16.9172ZM23.5219 55.4821L23.5276 55.4793C23.5236 55.4812 23.5217 55.4821 23.5219 55.4821Z" fill="#E9F7F8" fill-opacity="0.85"/>
</svg>
