<svg width="100" height="100" viewBox="0 0 100 100" fill="none" xmlns="http://www.w3.org/2000/svg">
<rect width="100" height="100" rx="15" fill="#E2E5FF"/>
<mask id="mask0_814_32855" style="mask-type:alpha" maskUnits="userSpaceOnUse" x="0" y="0" width="100" height="100">
<rect width="100" height="100" rx="15" fill="#D9D9D9"/>
</mask>
<g mask="url(#mask0_814_32855)">
<path d="M105.024 119.825C105.135 122.827 102.738 125.324 99.732 125.335L89.2185 125.367C86.3906 125.377 84.0507 123.169 83.8904 120.349C81.0626 70.719 78.9115 44.9194 78.9115 44.9194C78.8794 45.5712 78.3915 47.6796 77.9321 49.5814C77.38 51.8501 77.4655 54.1829 77.4904 56.5157C77.7077 76.0185 79.777 97.4303 79.9301 108.699C79.9906 113.126 78.8331 117.499 76.4718 121.25C71.1189 129.758 63.7964 134.11 58.4007 136.283C54.0236 138.049 49.1409 138.213 44.664 136.721C32.587 132.696 24.4169 123.899 22.401 113.806C20.0326 101.971 19.8011 50.9312 19.8011 50.9312C18.6151 50.34 18.1201 48.8549 18.0168 48.5201C18.0168 48.5165 18.0168 48.5165 18.0168 48.5094C18.0061 48.4702 17.999 48.4489 17.999 48.4489V48.488L17.8387 121.919C17.8815 124.886 15.4882 127.318 12.5214 127.318H1.21363C-1.62133 127.318 -3.96486 125.093 -4.09664 122.258C-5.51768 91.6606 -3.744 59.3257 -3.77605 37.8925C-3.81879 11.1777 14.0421 11.11 31.8924 3.88014C36.0202 2.20979 35.8635 -5.91757 35.3186 -11.0461C37.3166 -9.50401 39.4713 -8.12927 41.5299 -7.19615C42.6874 -6.66905 43.9481 -6.40905 45.2196 -6.40905H48.7027C50.106 -6.40905 51.4843 -6.72959 52.7451 -7.35998C54.2409 -8.11146 56.3707 -9.32237 58.5539 -11.0248C58.4364 -6.64768 58.9635 -3.46369 59.6117 -1.23775C60.3347 1.24463 62.2009 3.23907 64.644 4.11164C88.8801 12.7697 97.5275 10.907 100.569 37.7999C102.542 55.2335 104.43 103.485 105.024 119.825Z" fill="#FF8484"/>
<path d="M48.0269 97.1306C48.2619 97.266 48.465 97.4369 48.6608 97.5865C48.8532 97.7361 49.0348 97.8821 49.2129 98.0174C49.3981 98.1492 49.5832 98.249 49.7827 98.3416C49.9821 98.4413 50.1959 98.4876 50.4559 98.5659L50.5092 98.5837C50.6695 98.63 50.7621 98.8045 50.7123 98.9648C50.6873 99.0503 50.6268 99.1144 50.552 99.15C50.2564 99.2925 49.9002 99.3601 49.5548 99.3174C49.2093 99.2747 48.871 99.1571 48.5861 98.9755C48.2976 98.7974 48.0554 98.5695 47.8702 98.3059C47.685 98.0352 47.5497 97.761 47.5069 97.412C47.482 97.2411 47.6031 97.0843 47.7776 97.0594C47.8488 97.0523 47.92 97.0665 47.977 97.1022L48.0269 97.1306Z" fill="#21324D"/>
<path d="M71.6387 44.9498C73.0361 44.7746 74.1145 44.1991 74.0474 43.6644C73.9804 43.1296 72.7933 42.8381 71.3959 43.0133C69.9986 43.1885 68.9201 43.7641 68.9871 44.2988C69.0542 44.8335 70.2414 45.125 71.6387 44.9498Z" fill="#E95568"/>
<path d="M27.7078 50.7201C28.1215 49.729 27.2267 48.4121 25.7093 47.7787C24.1918 47.1453 22.6264 47.4352 22.2127 48.4263C21.799 49.4173 22.6937 50.7342 24.2112 51.3676C25.7286 52.001 27.2941 51.7111 27.7078 50.7201Z" fill="#E95568"/>
<path d="M50.9286 138.096C48.7739 138.096 46.6227 137.754 44.5535 137.063C32.569 133.071 24.1568 124.406 22.0555 113.882C19.7832 102.531 19.4698 54.732 19.452 51.1491C18.989 50.8678 18.6293 50.4689 18.3586 50.0629L18.2019 121.927C18.2233 123.455 17.6427 124.901 16.5671 125.991C15.4916 127.081 14.0599 127.682 12.5285 127.682H1.22066C-1.81374 127.682 -4.30329 125.31 -4.44575 122.283C-5.39667 101.787 -4.92297 80.7916 -4.50627 62.2646C-4.30682 53.3786 -4.11448 44.9842 -4.12516 37.9039C-4.16078 15.7442 8.07301 11.6734 22.2407 6.9615C25.3463 5.92866 28.5588 4.86022 31.7642 3.56027C35.7281 1.95759 35.4753 -6.24813 34.9695 -10.9992C34.9553 -11.1416 35.0265 -11.277 35.1512 -11.3482C35.2758 -11.4159 35.4289 -11.4052 35.5429 -11.3197C37.6549 -9.69211 39.7775 -8.37435 41.6829 -7.51246C42.7799 -7.01385 43.9694 -6.75743 45.223 -6.75743H48.7062C50.0489 -6.75743 51.3916 -7.0744 52.5883 -7.67274C53.9951 -8.37791 56.132 -9.5817 58.3365 -11.2983C58.4434 -11.3838 58.593 -11.3981 58.7176 -11.334C58.8387 -11.2734 58.9171 -11.1452 58.9135 -11.0063C58.8138 -7.30589 59.1664 -4.05068 59.957 -1.32613C60.648 1.04584 62.4465 2.95837 64.7686 3.78464C68.4512 5.09884 71.8132 6.1851 74.7764 7.14314C91.43 12.5175 98.3216 14.7398 100.925 37.7721C102.93 55.5084 104.843 105.049 105.381 119.808C105.438 121.357 104.878 122.824 103.803 123.943C102.727 125.061 101.281 125.681 99.7319 125.688L89.2184 125.72C89.2112 125.72 89.2041 125.72 89.2005 125.72C86.1911 125.72 83.7051 123.373 83.5342 120.367C81.2441 80.1505 79.378 55.3588 78.7689 47.5876C78.6336 48.1824 78.4697 48.8733 78.281 49.664C77.7895 51.6905 77.8144 53.8274 77.8429 55.8931L77.85 56.5092C77.9747 67.6959 78.7012 79.3812 79.3423 89.6882C79.816 97.3063 80.2256 103.884 80.2897 108.692C80.3538 113.276 79.1393 117.685 76.778 121.439C71.3254 130.104 63.8498 134.474 58.5396 136.611C56.0999 137.601 53.5142 138.096 50.9286 138.096ZM18.3729 48.4531C18.5046 48.8733 18.9676 50.1199 19.9648 50.6185C20.0859 50.679 20.1607 50.8001 20.1607 50.9354C20.1643 51.4447 20.4172 102.075 22.7535 113.743C24.805 124.01 33.0391 132.476 44.7778 136.387C49.1656 137.85 53.9595 137.697 58.2689 135.956C63.4829 133.854 70.8196 129.57 76.1726 121.065C78.4626 117.429 79.638 113.155 79.5774 108.71C79.5133 103.92 79.1037 97.349 78.63 89.7381C77.9889 79.4204 77.2624 67.728 77.1377 56.5235L77.1306 55.9073C77.1021 53.7953 77.0772 51.6121 77.5901 49.5002C78.2062 46.9537 78.5339 45.408 78.5588 44.9058C78.5695 44.7171 78.7226 44.571 78.9078 44.5675C78.9078 44.5675 78.9114 44.5675 78.9149 44.5675C79.1001 44.5675 79.2533 44.7099 79.2711 44.8951C79.2924 45.1516 81.4543 71.2681 84.2501 120.331C84.3997 122.96 86.5721 125.011 89.2041 125.011C89.2112 125.011 89.2148 125.011 89.2219 125.011L99.7355 124.979C101.092 124.972 102.357 124.431 103.297 123.455C104.234 122.475 104.725 121.193 104.675 119.84C104.138 105.085 102.229 55.569 100.223 37.8576C97.6699 15.2847 91.3802 13.2547 74.5628 7.82694C71.5925 6.8689 68.2269 5.78265 64.5336 4.46489C61.9978 3.56027 60.0354 1.47322 59.2804 -1.11956C58.5218 -3.73015 58.1549 -6.80729 58.1941 -10.2798C56.1569 -8.76256 54.223 -7.68342 52.9159 -7.0281C51.6231 -6.37991 50.17 -6.038 48.7133 -6.038H45.2302C43.8732 -6.038 42.584 -6.31224 41.3944 -6.85715C39.6386 -7.65136 37.7048 -8.82311 35.7673 -10.2584C36.7218 0.0521727 34.2856 3.31452 32.0383 4.2227C28.8116 5.52977 25.5885 6.60179 22.4722 7.63819C15.5058 9.95673 8.92417 12.1471 4.2123 16.4209C-1.00175 21.1541 -3.4271 27.9815 -3.4093 37.9039C-3.39861 44.9913 -3.5874 53.3929 -3.7904 62.2824C-4.2071 80.7951 -4.68437 101.78 -3.73345 122.251C-3.6088 124.897 -1.42909 126.97 1.22423 126.97H12.532C13.8676 126.97 15.1248 126.447 16.065 125.492C17.0052 124.538 17.5145 123.273 17.4967 121.931L17.657 48.4531C17.657 48.275 17.7888 48.1254 17.9633 48.1005C18.1378 48.0756 18.3052 48.1824 18.355 48.3534L18.3729 48.4103C18.3657 48.4281 18.3693 48.4388 18.3729 48.4531Z" fill="#21324D"/>
<path d="M27.9043 54.8766C27.0602 54.8766 26.2481 54.7947 25.4682 54.6309C22.302 53.9684 19.695 51.9775 17.7219 48.7081C17.6186 48.5407 17.6756 48.3199 17.843 48.2202C18.0104 48.1169 18.2312 48.1739 18.3309 48.3412C20.2007 51.4326 22.6511 53.3131 25.6142 53.9328C30.1089 54.8731 35.8108 52.9285 42.5634 48.1596C42.7237 48.0456 42.9481 48.0848 43.0585 48.2451C43.1725 48.4054 43.1333 48.6297 42.973 48.7401C37.2034 52.8216 32.1496 54.8766 27.9043 54.8766Z" fill="#21324D"/>
<path d="M18.0184 48.873C17.9293 48.873 17.8368 48.8374 17.7691 48.7661L18.0219 48.5168L17.7655 48.7661C17.7513 48.7519 17.7192 48.7163 17.7085 48.6985C15.1015 44.3499 14.7347 38.2775 14.578 35.6883C14.5424 35.0899 14.5139 34.6198 14.4747 34.4596C14.058 32.6503 13.0715 31.792 13.0608 31.7849C12.9112 31.6566 12.8934 31.4323 13.018 31.2827C13.1462 31.1331 13.367 31.1153 13.5201 31.2399C13.5664 31.2791 14.6955 32.2443 15.1692 34.2993C15.219 34.5165 15.244 34.9404 15.2867 35.6455C15.4399 38.1813 15.7996 44.1148 18.2962 48.296C18.4102 48.4385 18.3994 48.645 18.2677 48.7732C18.2 48.8409 18.111 48.873 18.0184 48.873Z" fill="#21324D"/>
<path d="M64.6267 48.4741C52.9414 48.4741 50.9327 44.4496 50.8401 44.243C50.7582 44.0649 50.8365 43.8512 51.0146 43.7693C51.1927 43.6874 51.4028 43.7658 51.4848 43.9403C51.5204 44.0151 54.4301 49.4962 73.0283 47.1884C75.6959 46.8572 77.7474 44.5778 77.8008 41.8924C77.8435 39.6593 77.6904 36.8992 77.352 33.6903C77.3449 33.6155 77.3591 33.5407 77.3983 33.4766C77.4375 33.4053 77.8079 32.7856 78.3706 32.6503C78.627 32.5897 78.8835 32.6396 79.1114 32.7928C79.2752 32.9032 79.318 33.124 79.2111 33.2878C79.1007 33.4516 78.8799 33.4944 78.716 33.3875C78.6341 33.3341 78.5771 33.3341 78.5308 33.3483C78.3634 33.3875 78.1747 33.5977 78.0714 33.7437C78.4062 36.9277 78.5523 39.6736 78.5131 41.9067C78.4561 44.9446 76.134 47.5196 73.1174 47.8971C69.8337 48.3031 67.0272 48.4741 64.6267 48.4741Z" fill="#21324D"/>
<path d="M70.8808 45.5795C70.4748 45.5795 70.0938 45.5403 69.7661 45.4584C68.8828 45.2412 68.7012 44.8067 68.6691 44.5645C68.6406 44.3259 68.7083 43.8557 69.5097 43.4284C70.0012 43.1648 70.6672 42.9725 71.3866 42.8799C72.8219 42.6982 74.3283 42.9725 74.4352 43.8415C74.542 44.7105 73.1495 45.3444 71.7178 45.5261C71.4364 45.5617 71.1515 45.5795 70.8808 45.5795ZM72.2271 43.5423C72.0027 43.5423 71.7534 43.5566 71.4792 43.5922C70.8559 43.6705 70.2611 43.8415 69.848 44.0623C69.4812 44.2582 69.3743 44.4327 69.3779 44.4826C69.3814 44.5324 69.5346 44.6749 69.937 44.771C70.3894 44.8815 71.0091 44.8993 71.6323 44.8245C73.0605 44.6464 73.7514 44.0944 73.7336 43.9377C73.7158 43.8023 73.1851 43.5423 72.2271 43.5423Z" fill="#21324D"/>
<path d="M25.8262 52.2521C25.2778 52.2521 24.683 52.1346 24.0883 51.8853C22.3645 51.1659 21.4028 49.6665 21.8979 48.4769C22.1472 47.8821 22.7135 47.4761 23.497 47.3301C24.2235 47.1948 25.0641 47.3052 25.8619 47.6364C26.6597 47.9676 27.3257 48.4912 27.7424 49.1002C28.1876 49.7591 28.2979 50.45 28.0522 51.0412C27.7245 51.8247 26.8662 52.2521 25.8262 52.2521ZM24.1345 47.9854C23.96 47.9854 23.7891 47.9997 23.6288 48.0317C23.091 48.1315 22.7099 48.3879 22.5568 48.7512C22.2256 49.5454 23.0519 50.6815 24.3625 51.2264C25.6731 51.7713 27.0621 51.5647 27.3933 50.7705C27.5465 50.4073 27.461 49.9549 27.1511 49.5026C26.8128 49.004 26.2572 48.5731 25.5876 48.2953C25.0997 48.0887 24.5975 47.9854 24.1345 47.9854Z" fill="#21324D"/>
<path d="M65.2757 52.9293C65.2722 52.9293 65.265 52.9293 65.2615 52.9293C64.4317 52.908 63.5841 52.8652 62.7436 52.7976C62.448 52.7726 62.2307 52.5162 62.252 52.2241C62.2734 51.9321 62.5263 51.7077 62.8255 51.7327C63.6482 51.7968 64.4744 51.8431 65.2864 51.8609C65.582 51.868 65.8135 52.1137 65.8064 52.4093C65.8028 52.6978 65.5642 52.9293 65.2757 52.9293ZM67.7688 52.9186C67.4839 52.9186 67.2453 52.6907 67.2346 52.4022C67.2239 52.1066 67.4554 51.8609 67.751 51.8502C68.5772 51.8217 69.4036 51.7683 70.2049 51.6899C70.497 51.6614 70.7605 51.8751 70.789 52.1707C70.8174 52.4628 70.6038 52.7263 70.3082 52.7548C69.4819 52.8367 68.6343 52.8902 67.7866 52.9186C67.7795 52.9151 67.7724 52.9186 67.7688 52.9186ZM60.3075 52.534C60.2825 52.534 60.2612 52.534 60.2362 52.5304C59.4064 52.42 58.5695 52.2883 57.7468 52.1351C57.4547 52.0817 57.266 51.8039 57.3194 51.5118C57.3728 51.2198 57.6506 51.0275 57.9427 51.0845C58.7476 51.2341 59.5702 51.3623 60.3787 51.4691C60.6707 51.5083 60.8773 51.7754 60.8381 52.0674C60.7989 52.3417 60.571 52.534 60.3075 52.534ZM72.7265 52.4272C72.4701 52.4272 72.2456 52.242 72.1993 51.982C72.1494 51.6899 72.3454 51.4157 72.6374 51.3658C73.453 51.2305 74.2615 51.0631 75.0379 50.8708C75.3228 50.7995 75.6148 50.9741 75.6825 51.2625C75.7537 51.5475 75.5792 51.8395 75.2908 51.9072C74.4859 52.1066 73.6525 52.2776 72.812 52.42C72.7835 52.4236 72.755 52.4272 72.7265 52.4272ZM55.4033 51.6294C55.3605 51.6294 55.3213 51.6258 55.2786 51.6151C53.7507 51.2483 52.8639 50.9491 52.8247 50.9384C52.5469 50.8423 52.3938 50.5396 52.49 50.2618C52.5861 49.984 52.8888 49.8308 53.1666 49.927C53.1737 49.9305 54.0499 50.2226 55.5279 50.5787C55.8129 50.6464 55.9909 50.9349 55.9232 51.2234C55.8627 51.4655 55.6454 51.6294 55.4033 51.6294Z" fill="white"/>
<path d="M67.0088 60.3276L66.4786 59.0976C66.4236 58.9635 66.3422 58.8419 66.2393 58.7398C66.1363 58.6378 66.0139 58.5575 65.8794 58.5037C65.7448 58.4498 65.6008 58.4236 65.4559 58.4265C65.311 58.4294 65.1682 58.4614 65.0359 58.5205L50.0205 64.966L51.2215 67.7685C51.2804 67.9016 51.3123 68.045 51.3153 68.1905L66.4642 61.6982C66.5903 61.6444 66.7046 61.5661 66.8003 61.468C66.896 61.3698 66.9713 61.2537 67.0219 61.1263C67.0726 60.9989 67.0975 60.8627 67.0953 60.7256C67.093 60.5885 67.0636 60.4532 67.0088 60.3276Z" fill="#D1FCFF"/>
<path d="M43.7118 71.4547C43.6096 71.3505 43.5276 71.2282 43.4701 71.094L42.2691 68.2878L19.0913 78.25L20.4618 81.4421L43.7118 71.4547Z" fill="#D1FCFF"/>
<path d="M51.2248 67.7686L49.9192 64.7208C49.8001 64.4456 49.5771 64.2286 49.2987 64.1171C49.0203 64.0056 48.7092 64.0087 48.4331 64.1257L42.7559 66.5639C42.6193 66.6224 42.4956 66.7073 42.3919 66.8138C42.2882 66.9202 42.2066 67.046 42.1516 67.1841C42.0967 67.3222 42.0695 67.4697 42.0717 67.6183C42.0738 67.7669 42.1054 67.9136 42.1644 68.0499L43.47 71.0977C43.5961 71.3843 43.8296 71.6099 44.1204 71.726C44.4112 71.842 44.7359 71.8392 45.0246 71.7181L50.608 69.3232C50.8295 69.2306 51.0174 69.0724 51.1463 68.87C51.2753 68.6675 51.3391 68.4304 51.3294 68.1906C51.323 68.0444 51.2874 67.9009 51.2248 67.7686Z" fill="#54E5EE"/>
<path d="M69.1618 54.766C68.9486 54.5653 68.6813 54.4314 68.3929 54.3808C68.1045 54.3301 67.8075 54.365 67.5387 54.4811C67.3461 54.5649 67.173 54.6877 67.0302 54.8417L62.5901 59.5776L65.0392 58.528C65.1715 58.4688 65.3143 58.4368 65.4592 58.4339C65.6041 58.431 65.7481 58.4573 65.8827 58.5111C66.0172 58.5649 66.1396 58.6452 66.2426 58.7473C66.3455 58.8493 66.4269 58.971 66.4819 59.1051L66.6984 59.61L69.2232 56.9049C69.3602 56.7607 69.4674 56.5909 69.5386 56.4052C69.6097 56.2195 69.6434 56.0215 69.6377 55.8227C69.632 55.6239 69.587 55.4281 69.5053 55.2468C69.4236 55.0654 69.3069 54.902 69.1618 54.766Z" fill="#54E5EE"/>
<path d="M20.4622 81.4314L19.0917 78.2393L13.5623 80.609C12.6734 80.9914 11.9724 81.711 11.6133 82.6097C11.2543 83.5083 11.2664 84.5128 11.6471 85.4025L15.4271 94.2105C15.5192 94.4208 15.6901 94.5866 15.9032 94.6722C16.0591 94.7348 16.2299 94.7505 16.3946 94.7174C16.5592 94.6843 16.7106 94.6037 16.8302 94.4857C16.9497 94.3677 17.0322 94.2174 17.0674 94.0531C17.1027 93.8889 17.0892 93.7179 17.0286 93.5613L16.5633 92.3349C13.0285 83.8263 20.4622 81.4314 20.4622 81.4314Z" fill="#54E5EE"/>
<path d="M51.3195 68.5516C51.2507 68.5497 51.1835 68.5298 51.1247 68.4939C51.075 68.4619 51.0338 68.4183 51.0049 68.3667C50.976 68.3151 50.9601 68.2572 50.9588 68.1981C50.9584 68.0995 50.9363 68.0022 50.8939 67.9132L49.6928 65.107C49.6568 65.0192 49.6568 64.9207 49.6928 64.8329C49.7278 64.7441 49.7965 64.6727 49.884 64.6345L64.9031 58.189C65.0785 58.1119 65.2676 58.0706 65.4592 58.0673C65.6509 58.0641 65.8413 58.0991 66.0193 58.1703C66.1973 58.2415 66.3592 58.3475 66.4958 58.482C66.6323 58.6165 66.7407 58.7768 66.8146 58.9537L67.3449 60.1836C67.4916 60.5234 67.498 60.9074 67.3629 61.2519C67.2278 61.5964 66.9621 61.8736 66.6235 62.0231L51.4747 68.5155C51.426 68.5379 51.3731 68.5501 51.3195 68.5516ZM50.4972 65.1539L51.5576 67.6282C51.5576 67.6462 51.5576 67.6643 51.5828 67.6859L66.3205 61.3595C66.4028 61.3248 66.4775 61.2743 66.5402 61.2107C66.603 61.1471 66.6525 61.0717 66.686 60.989C66.7195 60.9062 66.7363 60.8176 66.7355 60.7283C66.7346 60.639 66.7162 60.5507 66.6812 60.4686L66.151 59.2386C66.1139 59.1497 66.0593 59.0691 65.9906 59.0015C65.9218 58.934 65.8402 58.881 65.7506 58.8455C65.5703 58.7717 65.3682 58.7717 65.1879 58.8455L50.4972 65.1539Z" fill="#21324D"/>
<path d="M20.4619 81.7922C20.3911 81.7922 20.3219 81.7713 20.2629 81.7321C20.2039 81.693 20.1577 81.6374 20.1301 81.5722L18.7631 78.3801C18.7447 78.3361 18.7354 78.2889 18.7354 78.2412C18.7354 78.1936 18.7447 78.1464 18.7631 78.1024C18.7988 78.0149 18.8675 77.945 18.9543 77.9076L42.1284 67.9635C42.172 67.9444 42.2188 67.9341 42.2664 67.9332C42.3139 67.9323 42.3613 67.9408 42.4055 67.9582C42.4498 67.9756 42.4901 68.0017 42.5242 68.0347C42.5584 68.0678 42.5857 68.1074 42.6045 68.151L43.8057 70.9572C43.8447 71.0469 43.8997 71.1287 43.9679 71.1988C44.01 71.2404 44.0411 71.2917 44.0586 71.3482C44.0762 71.4046 44.0795 71.4645 44.0685 71.5226C44.0575 71.5806 44.0323 71.6351 43.9952 71.6812C43.9582 71.7272 43.9104 71.7635 43.8561 71.7868L20.6098 81.7634C20.5628 81.782 20.5126 81.7918 20.4619 81.7922ZM19.5674 78.427L20.6495 80.9518L43.1636 71.2926L43.1347 71.2349L42.0743 68.7642L19.5674 78.427Z" fill="#21324D"/>
<path d="M44.5808 72.1759C44.3734 72.176 44.1681 72.1342 43.9772 72.053C43.7863 71.9718 43.6137 71.8529 43.4699 71.7034C43.3363 71.5699 43.2298 71.4119 43.1561 71.2381L41.8504 68.1903C41.695 67.8267 41.6901 67.4163 41.8369 67.0492C41.9836 66.682 42.27 66.3881 42.6332 66.2317L48.3068 63.7971C48.4867 63.7197 48.6802 63.6785 48.8761 63.6759C49.072 63.6733 49.2664 63.7094 49.4484 63.7822C49.6303 63.8549 49.7961 63.9627 49.9363 64.0996C50.0765 64.2365 50.1882 64.3997 50.2653 64.5798L51.5745 67.6276C51.6505 67.8019 51.6922 67.9893 51.6972 68.1795C51.7084 68.4904 51.6256 68.7975 51.4596 69.0607C51.2936 69.3238 51.052 69.5308 50.7666 69.6547L45.1832 72.0496C44.9929 72.1317 44.7881 72.1746 44.5808 72.1759ZM48.9091 64.3958C48.8051 64.3967 48.7022 64.4175 48.6061 64.4572L42.9289 66.8954C42.836 66.9351 42.7519 66.9927 42.6812 67.065C42.6106 67.1373 42.5549 67.2228 42.5174 67.3166C42.4798 67.4104 42.4612 67.5107 42.4625 67.6117C42.4638 67.7127 42.485 67.8125 42.5249 67.9053L43.8342 70.9567C43.8733 71.0464 43.9283 71.1283 43.9965 71.1984C44.1122 71.3188 44.2616 71.4014 44.4251 71.4355C44.5885 71.4696 44.7584 71.4536 44.9126 71.3896L50.4961 68.991C50.6493 68.9267 50.779 68.8166 50.8674 68.6759C50.9558 68.5352 50.9988 68.3707 50.9903 68.2047C50.9906 68.1037 50.9685 68.0039 50.9254 67.9125L49.6196 64.8611C49.5389 64.6737 49.3872 64.5258 49.1976 64.4499C49.0955 64.4101 48.9862 64.3917 48.8766 64.3958H48.9091Z" fill="#21324D"/>
<path d="M66.6957 59.963H66.6343C66.5757 59.9523 66.5207 59.9273 66.4741 59.8902C66.4276 59.853 66.3909 59.8049 66.3674 59.7502L66.1474 59.2452C66.1103 59.1563 66.0558 59.0756 65.987 59.0081C65.9182 58.9406 65.8366 58.8875 65.747 58.8521C65.5667 58.7783 65.3647 58.7783 65.1844 58.8521L62.7354 59.9017C62.6595 59.9332 62.5751 59.9378 62.4962 59.9149C62.4173 59.8919 62.3486 59.8427 62.3015 59.7754C62.2544 59.7081 62.2317 59.6267 62.2371 59.5447C62.2425 59.4628 62.2758 59.3851 62.3313 59.3246L66.7678 54.5887C66.9453 54.4014 67.1588 54.2518 67.3954 54.1487C67.7296 54.0067 68.098 53.9652 68.4554 54.0293C68.8129 54.0934 69.1439 54.2602 69.4081 54.5094C69.5875 54.6768 69.7321 54.8781 69.8336 55.1015C69.935 55.325 69.9914 55.5662 69.9995 55.8115C70.0075 56.0568 69.967 56.3013 69.8804 56.5309C69.7938 56.7605 69.6627 56.9708 69.4946 57.1496L66.9698 59.8548C66.9343 59.8911 66.8915 59.9195 66.8442 59.9382C66.797 59.9568 66.7464 59.9653 66.6957 59.963ZM65.4729 58.0694C65.6582 58.0702 65.8417 58.1057 66.0139 58.174C66.1918 58.2445 66.3539 58.3497 66.4908 58.4834C66.6276 58.6172 66.7365 58.7768 66.811 58.9531L68.9752 56.6519C69.1831 56.4297 69.2946 56.1341 69.2851 55.8299C69.2757 55.5257 69.1461 55.2376 68.9247 55.0288C68.7616 54.8767 68.5579 54.7753 68.3382 54.7369C68.1186 54.6985 67.8926 54.7247 67.6876 54.8124C67.5414 54.8746 67.4099 54.9667 67.3016 55.0829L64.0554 58.5599L64.921 58.1992C65.0946 58.1199 65.2822 58.0757 65.4729 58.0694Z" fill="#21324D"/>
<path d="M16.2308 95.0942C15.9905 95.0946 15.7555 95.0244 15.5548 94.8923C15.3541 94.7602 15.1966 94.572 15.1019 94.3512L11.3219 85.5432C10.905 84.5653 10.8926 83.4621 11.2874 82.4751C11.6822 81.4881 12.452 80.6978 13.4283 80.2772L18.9504 77.9075C19.038 77.87 19.1368 77.8687 19.2253 77.9039C19.3138 77.939 19.3849 78.0077 19.4229 78.095L20.7936 81.2871C20.8139 81.3331 20.8245 81.3829 20.8245 81.4332C20.8245 81.4835 20.8139 81.5333 20.7936 81.5793C20.773 81.625 20.7431 81.6659 20.7058 81.6995C20.6686 81.733 20.6247 81.7584 20.5771 81.7741C20.5482 81.7741 17.7638 82.7154 16.5483 85.3557C15.6826 87.2421 15.8016 89.5432 16.9089 92.2087L17.3815 93.4423C17.4948 93.7379 17.4894 94.066 17.3664 94.3578C17.2434 94.6495 17.0122 94.8824 16.7214 95.0077C16.5653 95.0689 16.3985 95.0983 16.2308 95.0942ZM18.9036 78.7118L13.7132 80.9409C13.3154 81.1114 12.9551 81.3586 12.6529 81.6685C12.3507 81.9784 12.1126 82.3448 11.9521 82.7468C11.7917 83.1488 11.712 83.5785 11.7177 84.0113C11.7235 84.4441 11.8145 84.8715 11.9855 85.2691L15.7656 94.0771C15.8242 94.1847 15.9199 94.2674 16.035 94.3096C16.15 94.3519 16.2765 94.3508 16.3909 94.3067C16.5052 94.2625 16.5997 94.1783 16.6565 94.0697C16.7133 93.9611 16.7287 93.8355 16.6997 93.7164L16.2344 92.49C15.0514 89.6478 14.936 87.1483 15.8918 85.0707C16.7468 83.3444 18.2006 81.988 19.982 81.2547L18.9036 78.7118Z" fill="#21324D"/>
</g>
</svg>
