<svg width="70" height="70" viewBox="0 0 70 70" fill="none" xmlns="http://www.w3.org/2000/svg">
<path fill-rule="evenodd" clip-rule="evenodd" d="M35 52.5C36.1759 52.5 37.2704 52.8479 38.1863 53.4464L40.8355 5.83337L42.2917 5.91438L43.7477 5.83337L46.3969 53.4464C47.313 52.8479 48.4075 52.5 49.5834 52.5C52.805 52.5 55.4167 55.1118 55.4167 58.3334C55.4167 61.555 52.805 64.1667 49.5834 64.1667C46.3763 64.1667 43.7738 61.5787 43.7502 58.3774L43.4241 52.5178H41.1591L40.8332 58.3774C40.8094 61.5787 38.2069 64.1667 35 64.1667C31.7783 64.1667 29.1667 61.555 29.1667 58.3334C29.1667 55.1118 31.7783 52.5 35 52.5ZM42.2917 32.1647L43.2618 49.6012H41.3215L42.2917 32.1647ZM42.2917 27.7591C43.0971 27.7591 43.75 27.1071 43.75 26.3028C43.75 25.4986 43.0971 24.8465 42.2917 24.8465C41.4862 24.8465 40.8334 25.4986 40.8334 26.3028C40.8334 27.1071 41.4862 27.7591 42.2917 27.7591ZM35 55.4167C33.3891 55.4167 32.0834 56.7225 32.0834 58.3334C32.0834 59.9442 33.3891 61.25 35 61.25C36.6109 61.25 37.9167 59.9442 37.9167 58.3334C37.9167 56.7225 36.6109 55.4167 35 55.4167ZM46.6667 58.3334C46.6667 56.7225 47.9725 55.4167 49.5834 55.4167C51.1942 55.4167 52.5 56.7225 52.5 58.3334C52.5 59.9442 51.1942 61.25 49.5834 61.25C47.9725 61.25 46.6667 59.9442 46.6667 58.3334Z" fill="#E9F7F8" fill-opacity="0.85"/>
<path fill-rule="evenodd" clip-rule="evenodd" d="M23.3333 6.17432L21.1247 7.4995L21.875 8.75001C21.1247 7.4995 21.1227 7.50073 21.1227 7.50073L21.1205 7.50204L21.1158 7.50489L21.105 7.51148L21.0782 7.52832C21.0579 7.5412 21.033 7.55741 21.0037 7.57713C20.9452 7.61659 20.8692 7.67009 20.778 7.73905C20.5959 7.87699 20.3537 8.07662 20.0703 8.34913C19.5027 8.89492 18.7746 9.72909 18.0352 10.9382C16.5531 13.3625 15.0576 17.2423 14.6762 23.2361C14.56 25.0628 15.6167 26.6022 17.1245 27.3029C16.456 27.9638 16.0417 28.8814 16.0417 29.8958V60.5208C16.0417 62.5344 17.674 64.1667 19.6875 64.1667C21.701 64.1667 23.3333 62.5344 23.3333 60.5208V29.8958C23.3333 28.5927 22.6497 27.4493 21.6214 26.8046C22.6624 26.0049 23.3333 24.7475 23.3333 23.3333V6.17432ZM17.5871 23.4213C17.9317 18.005 19.238 14.6339 20.4167 12.6378V23.3333C20.4167 24.1388 19.7638 24.7917 18.9583 24.7917C18.1291 24.7917 17.542 24.1297 17.5871 23.4213ZM20.4167 30.021V29.8958C20.4167 29.4932 20.0902 29.1667 19.6875 29.1667C19.2847 29.1667 18.9583 29.4932 18.9583 29.8958V31.4793L20.4167 30.021ZM20.4167 34.1457V35.8543L18.9583 37.3126V35.6041L20.4167 34.1457ZM20.4167 41.6876V39.9791L18.9583 41.4374V43.146L20.4167 41.6876ZM20.4167 45.8124V60.5208C20.4167 60.9235 20.0902 61.25 19.6875 61.25C19.2847 61.25 18.9583 60.9235 18.9583 60.5208V47.2707L20.4167 45.8124Z" fill="#E9F7F8" fill-opacity="0.85"/>
</svg>
