<svg width="70" height="70" viewBox="0 0 70 70" fill="none" xmlns="http://www.w3.org/2000/svg">
<path d="M11.6667 27.7587C11.6667 23.894 12.9567 20.1921 15.0859 17.4827C17.2079 14.7821 20.1058 13.125 23.3788 13.125C27.9036 13.125 31.4132 16.0717 33.691 20.711L35 23.3773L36.309 20.711C38.5866 16.072 42.0962 13.125 46.6212 13.125C49.8945 13.125 52.7924 14.7824 54.9144 17.4831C57.0434 20.1927 58.3333 23.8945 58.3333 27.7587C58.3333 28.3346 58.3053 28.9057 58.2512 29.4716C59.2032 30.2126 60.0655 31.0636 60.8188 32.0055C61.0982 30.6284 61.25 29.2116 61.25 27.7587C61.25 23.2746 59.7609 18.9305 57.2078 15.6811C54.6477 12.4229 50.9603 10.2084 46.6212 10.2084C41.5116 10.2084 37.6262 13.0718 35 17.1118C32.3737 13.0716 28.4883 10.2084 23.3788 10.2084C19.0401 10.2084 15.3528 12.4225 12.7925 15.6806C10.2393 18.9298 8.75 23.2739 8.75 27.7587C8.75 37.7347 15.364 45.7496 21.6549 51.1431C24.8303 53.8653 27.9985 55.9853 30.3698 57.4241C31.557 58.1444 32.5485 58.6964 33.2466 59.07C33.5958 59.2568 33.8718 59.3991 34.0627 59.4958C34.1581 59.5441 34.2322 59.581 34.2835 59.6063L34.3432 59.6355L34.3598 59.6437L34.3664 59.6469L35.0203 59.9616L35.6676 59.63L35.6724 59.6273L35.6889 59.6189L35.748 59.5881C35.799 59.5614 35.8728 59.5225 35.9678 59.4715C36.1579 59.3695 36.4333 59.2193 36.7816 59.0229C37.4781 58.6301 38.4679 58.0515 39.6532 57.3016C40.4887 56.7732 41.4232 56.1586 42.422 55.4626C41.4431 55.0088 40.5199 54.4546 39.6661 53.8133C39.1122 54.1843 38.5856 54.5258 38.0941 54.8367C36.9552 55.5571 36.0081 56.1106 35.349 56.4823C35.2138 56.5586 35.0909 56.6271 34.9807 56.6878C34.8734 56.6316 34.7538 56.5685 34.6227 56.4983C33.9652 56.1463 33.0197 55.6203 31.8828 54.9305C29.6056 53.5489 26.5759 51.5202 23.5534 48.9287C17.4485 43.6948 11.6667 36.4224 11.6667 27.7587Z" fill="#E9F7F8" fill-opacity="0.85"/>
<path d="M49.5833 45.2084C51.1942 45.2084 52.5 43.9026 52.5 42.2917C52.5 40.6808 51.1942 39.375 49.5833 39.375C49.2373 39.375 48.9054 39.4353 48.5975 39.5458L45.2449 36.1932L43.1824 38.2556L46.7107 41.7839C46.6818 41.9488 46.6667 42.1184 46.6667 42.2917C46.6667 43.9026 47.9725 45.2084 49.5833 45.2084Z" fill="#E9F7F8" fill-opacity="0.85"/>
<path fill-rule="evenodd" clip-rule="evenodd" d="M48.8542 53.9583C55.7002 53.9583 61.25 48.4085 61.25 41.5625C61.25 34.7165 55.7002 29.1666 48.8542 29.1666C42.0082 29.1666 36.4583 34.7165 36.4583 41.5625C36.4583 48.4085 42.0082 53.9583 48.8542 53.9583ZM48.8542 51.0416C54.0894 51.0416 58.3333 46.7977 58.3333 41.5625C58.3333 36.3272 54.0894 32.0833 48.8542 32.0833C43.6189 32.0833 39.375 36.3272 39.375 41.5625C39.375 46.7977 43.6189 51.0416 48.8542 51.0416Z" fill="#E9F7F8" fill-opacity="0.85"/>
</svg>
