<svg width="70" height="70" viewBox="0 0 70 70" fill="none" xmlns="http://www.w3.org/2000/svg">
<path fill-rule="evenodd" clip-rule="evenodd" d="M37.6632 16.0416C37.6632 20.8741 33.7457 24.7916 28.9132 24.7916C24.0807 24.7916 20.1632 20.8741 20.1632 16.0416C20.1632 11.2091 24.0807 7.29163 28.9132 7.29163C33.7457 7.29163 37.6632 11.2091 37.6632 16.0416ZM34.7465 16.0416C34.7465 19.2632 32.1348 21.875 28.9132 21.875C25.6915 21.875 23.0799 19.2632 23.0799 16.0416C23.0799 12.82 25.6915 10.2083 28.9132 10.2083C32.1348 10.2083 34.7465 12.82 34.7465 16.0416Z" fill="#E9F7F8" fill-opacity="0.85"/>
<path fill-rule="evenodd" clip-rule="evenodd" d="M45.6839 26.2426C46.1701 25.2704 46.7047 22.8885 44.9547 21.1385C43.2047 19.3885 41.3089 19.6876 39.8506 20.4093C39.1774 20.7425 38.5041 21.5614 37.7033 22.5353C35.9023 24.7258 33.4559 27.701 28.9131 27.701C24.3703 27.701 21.924 24.7258 20.1228 22.5353C19.322 21.5614 18.6489 20.7425 17.9756 20.4093C16.5172 19.6876 14.6214 19.3885 12.8714 21.1385C11.1214 22.8885 11.6561 25.2704 12.1422 26.2426C14.2553 30.7705 16.8719 33.5696 20.1631 34.9999V42.2916C20.1631 42.5691 20.1986 42.8818 20.2732 43.2163C17.5217 45.6729 15.7882 49.2818 15.7882 53.2959C15.7882 54.7576 16.0615 56.9489 16.85 58.8309C17.6186 60.6651 19.1218 62.7084 21.7836 62.7084C24.4094 62.7084 26.4826 60.5406 26.4826 57.9359C26.4826 56.809 26.054 55.8308 25.753 55.144L25.7126 55.0517C25.3715 54.2705 25.1863 53.7936 25.1863 53.2959C25.1863 52.8001 25.4473 52.0242 25.9747 51.1676C26.4584 50.3819 27.0445 49.7256 27.5011 49.3669C27.9669 49.4984 28.4435 49.5833 28.9131 49.5833C29.3828 49.5833 29.8594 49.4984 30.3252 49.3669C30.7818 49.7256 31.3679 50.3817 31.8516 51.1676C32.3791 52.0242 32.64 52.8001 32.64 53.2959C32.64 53.7809 32.454 54.2671 32.1112 55.0615L32.0682 55.161C31.7699 55.8494 31.3437 56.8328 31.3437 57.9359C31.3437 60.5406 33.417 62.7084 36.0428 62.7084C38.695 62.7084 40.1841 60.5359 40.9396 58.7277C41.7322 56.8312 42.0382 54.6469 42.0382 53.2959C42.0382 49.2818 40.3045 45.6728 37.5529 43.2162C37.6275 42.8818 37.6631 42.5691 37.6631 42.2916V34.9999C40.9544 33.5696 43.5709 30.7705 45.6839 26.2426ZM14.7685 24.9735L14.7853 25.0092C16.7004 29.1129 18.8807 31.2625 21.3256 32.3249L23.0797 33.0873V37.9166H34.7464V33.0873L36.5006 32.3249C38.9454 31.2625 41.1257 29.1129 43.0409 25.0092L43.0576 24.9735L43.0752 24.9382C43.1268 24.8351 43.2528 24.4676 43.2422 24.0579C43.2333 23.7167 43.14 23.4485 42.8923 23.2009C42.6734 22.982 42.5047 22.8806 42.3986 22.8315C42.2949 22.7835 42.2049 22.7636 42.1145 22.7581C41.9145 22.7459 41.5963 22.8007 41.1505 23.0203C41.1537 23.0189 41.1563 23.0174 41.1587 23.0164C41.1636 23.014 41.1666 23.013 41.167 23.0138C41.168 23.0151 41.1585 23.0241 41.1369 23.0448C41.0602 23.1182 40.8306 23.3376 40.3773 23.8785C40.2647 24.013 40.1396 24.1654 40.0034 24.3311C39.4971 24.9475 38.8392 25.7481 38.1137 26.4944C36.1681 28.4956 33.2745 30.6176 28.9131 30.6176C24.5518 30.6176 21.658 28.4956 19.7124 26.4944C18.9871 25.7481 18.3292 24.9475 17.8229 24.3312C17.6868 24.1657 17.5614 24.0129 17.4488 23.8785C16.9956 23.3376 16.7659 23.1182 16.6892 23.0448C16.6851 23.0409 16.6814 23.0374 16.6782 23.0343C16.6644 23.021 16.6582 23.0148 16.6591 23.0138C16.6598 23.0127 16.6647 23.0149 16.6734 23.0193C16.2289 22.8005 15.9113 22.7459 15.7116 22.7581C15.6214 22.7636 15.5312 22.7835 15.4276 22.8315C15.3214 22.8806 15.1527 22.982 14.9338 23.2009C14.6861 23.4485 14.5928 23.7167 14.5839 24.0579C14.5733 24.4676 14.6994 24.8351 14.751 24.9382L14.7685 24.9735ZM23.6246 43.7378C23.1789 43.0476 23.0797 42.465 23.0797 42.2916V40.8333H34.7464V42.2916C34.7464 42.465 34.6472 43.0476 34.2016 43.7378C33.7871 44.3796 33.1303 45.0213 32.1437 45.4422C31.8657 45.5608 31.5534 45.7094 31.2885 45.8354L31.1375 45.9071C30.8136 46.0605 30.5131 46.1992 30.2139 46.3207C29.5788 46.5784 29.1626 46.6666 28.9131 46.6666C28.6635 46.6666 28.2473 46.5784 27.6124 46.3207C27.313 46.1992 27.0127 46.0605 26.6887 45.9071L26.5379 45.8355C26.273 45.7095 25.9604 45.5608 25.6824 45.4422C24.6958 45.0213 24.039 44.3796 23.6246 43.7378ZM18.7049 53.2959C18.7049 50.4311 19.8243 47.8413 21.6339 45.9535C22.3242 46.8043 23.2779 47.5874 24.5381 48.1249L24.5878 48.1464C24.1888 48.6034 23.814 49.1138 23.491 49.6385C22.8489 50.6815 22.2696 52.0104 22.2696 53.2959C22.2696 54.4583 22.7046 55.4528 23.0109 56.1532L23.0396 56.2188C23.3866 57.0132 23.5659 57.4689 23.5659 57.9359C23.5659 58.9919 22.7373 59.7917 21.7836 59.7917C20.9253 59.7917 20.1601 59.1836 19.5401 57.7039C18.9401 56.2716 18.7049 54.4859 18.7049 53.2959ZM34.3354 49.6385C34.0124 49.1138 33.6375 48.6034 33.2385 48.1462L33.2881 48.1249C34.5483 47.5874 35.5021 46.8041 36.1923 45.9533C38.002 47.8413 39.1215 50.4311 39.1215 53.2959C39.1215 54.3247 38.8694 56.1175 38.2486 57.6031C37.5909 59.1769 36.8114 59.7917 36.0428 59.7917C35.0891 59.7917 34.2603 58.9919 34.2603 57.9359C34.2603 57.488 34.4394 57.0278 34.7891 56.2174L34.818 56.1504C35.1228 55.4458 35.5566 54.442 35.5566 53.2959C35.5566 52.0104 34.9775 50.6815 34.3354 49.6385Z" fill="#E9F7F8" fill-opacity="0.85"/>
<path fill-rule="evenodd" clip-rule="evenodd" d="M52.1076 55.125L49.7742 56.875V43.75C49.7742 42.3359 50.4451 41.0785 51.486 40.2787C50.4577 39.634 49.7742 38.4907 49.7742 37.1875V16.7708C49.7742 14.7573 51.4064 13.125 53.4201 13.125C55.4336 13.125 57.0659 14.7573 57.0659 16.7708V37.1875C57.0659 38.2037 56.6501 39.1229 55.9794 39.7839C57.4967 40.4908 58.5839 42.0508 58.2832 43.9667C57.7045 47.6547 56.1842 50.4258 54.8061 52.2753C54.1171 53.1999 53.4612 53.8978 52.9699 54.3706C52.724 54.6071 52.5185 54.7881 52.3696 54.9137C52.2951 54.9765 52.2347 55.0254 52.1904 55.0607L52.1615 55.0834L52.1361 55.1031L52.1185 55.1167L52.1122 55.1215L52.1096 55.1234L52.1076 55.125ZM51.2326 53.9583C52.1076 55.125 52.107 55.1254 52.1076 55.125L51.2326 53.9583ZM54.1492 31.4793L52.6909 32.9376V29.7707L54.1492 28.3124V31.4793ZM52.6909 25.646L54.1492 24.1876V16.7708C54.1492 16.3682 53.8227 16.0417 53.4201 16.0417C53.0173 16.0417 52.6909 16.3682 52.6909 16.7708V25.646ZM52.6909 37.0624L54.1492 35.604V37.1875C54.1492 37.5901 53.8227 37.9167 53.4201 37.9167C53.0173 37.9167 52.6909 37.5901 52.6909 37.1875V37.0624ZM52.6909 50.2247C53.788 48.6742 54.943 46.4389 55.4018 43.5146C55.4883 42.9634 55.0292 42.2917 54.1492 42.2917C53.3438 42.2917 52.6909 42.9446 52.6909 43.75V50.2247Z" fill="#E9F7F8" fill-opacity="0.85"/>
</svg>
