<svg width="70" height="70" viewBox="0 0 70 70" fill="none" xmlns="http://www.w3.org/2000/svg">
<path fill-rule="evenodd" clip-rule="evenodd" d="M43.1439 33.3566C44.8347 33.3566 46.4863 32.8969 47.8826 32.0377C49.3004 32.8953 50.9737 33.3449 52.6811 33.3271L58.1048 31.5483C59.6331 30.4127 60.6823 28.8384 61.0769 27.0891C61.4714 25.3397 61.1871 23.5213 60.2719 21.9381C59.3566 20.355 57.8658 19.1031 56.049 18.3922C55.6341 16.6986 54.5892 15.1837 53.0876 14.099L47.7932 12.4291H47.1972C46.0196 10.8805 44.2517 9.77581 42.2295 9.32514L30.8789 8.75C28.9921 8.8913 27.2129 9.60057 25.8278 10.7637C25.1733 10.6246 24.5033 10.5525 23.8309 10.5488C22.2027 10.5518 20.6102 10.9795 19.2458 11.7803C17.8813 12.581 16.8032 13.7206 16.1416 15.0615L11.8288 17.815C10.7556 19.1255 10.1779 20.7121 10.1807 22.3408C10.1701 23.022 10.2705 23.7007 10.4788 24.3555C9.34728 25.6788 8.73885 27.305 8.75015 28.9756C8.74746 30.9132 9.56873 32.7781 11.045 34.1867C11.1642 35.5739 11.702 36.9053 12.6003 38.0368C13.4986 39.1684 14.7232 40.0571 16.1416 40.6064C17.7758 41.5298 19.1596 42.7718 20.1911 44.2406C21.2227 45.7096 21.8757 47.3683 22.1023 49.0947H33.2376V41.0362C33.2356 39.6054 33.6785 38.2028 34.5161 36.9873C35.3536 35.7719 36.5524 34.7923 37.9765 34.1597C38.7772 33.8836 38.9742 33.5119 39.2156 33.0565C39.3764 32.753 39.5571 32.4122 39.9491 32.0377C40.2898 32.2473 40.5538 32.4332 40.7826 32.5943C41.4922 33.0938 41.8654 33.3566 43.1439 33.3566ZM49.63 29.6696C50.4076 30.0902 51.3042 30.3435 52.2411 30.3933L56.6968 28.9319C57.5104 28.2239 58.0271 27.3459 58.2315 26.439C58.4612 25.4208 58.3028 24.3511 57.7468 23.3893C57.1855 22.4184 56.2314 21.5871 54.9862 21.0999L53.5762 20.5482L53.216 19.0776C53.005 18.2162 52.4987 17.3839 51.7113 16.7147L47.3442 15.3371H45.751L44.8755 14.186C44.1817 13.2735 43.1114 12.5537 41.8125 12.2159L30.9312 11.6645C29.6892 11.7898 28.56 12.2695 27.7034 12.9888L26.6136 13.9039L25.2216 13.6081C24.7656 13.5112 24.2971 13.4603 23.8257 13.457C22.7026 13.4609 21.6242 13.7578 20.722 14.2872C19.8187 14.8173 19.1517 15.5438 18.7571 16.3435L18.397 17.0734L13.8389 19.9835C13.3409 20.7136 13.096 21.5253 13.0974 22.3272L13.0974 22.3525L13.0971 22.3778C13.0914 22.7408 13.1447 23.1058 13.2583 23.463L13.75 25.0091L12.6956 26.2424C11.9992 27.0569 11.6604 28.0101 11.6667 28.9473L11.6668 28.9591L11.6668 28.9711C11.6653 30.0637 12.1256 31.1779 13.0584 32.0679L13.8566 32.8294L13.951 33.9286C14.0192 34.7223 14.3285 35.5144 14.8846 36.2148C15.4433 36.9186 16.2337 37.5057 17.1952 37.8782L17.3922 37.9546L17.5764 38.0586C17.7896 38.179 17.9996 38.3041 18.2063 38.4338L18.1972 38.4405C22.162 40.8594 23.8443 44.3799 24.4154 46.18H25.3079V35.5435L22.0948 32.6874L19.9138 34.8685C19.3443 35.4379 18.4209 35.4379 17.8515 34.8685C17.282 34.299 17.282 33.3756 17.8515 32.8061L20.4645 30.1929L19.6805 25.8807L16.1281 24.1046C15.4077 23.7444 15.1158 22.8684 15.476 22.148C15.8362 21.4277 16.7122 21.1356 17.4326 21.4958L20.8988 23.2291L25.1446 20.5272L23.8241 17.0055C23.5411 16.2514 23.9234 15.4108 24.6775 15.1279C25.4316 14.8451 26.2722 15.2272 26.5549 15.9813L27.974 19.7655H29.5439L30.2938 18.2656L29.1048 15.4911C28.7875 14.7509 29.1305 13.8935 29.8707 13.5763C30.611 13.259 31.4683 13.6019 31.7857 14.3422L32.8096 16.7313L36.8754 17.4705L36.8922 17.457L39.52 15.3546C40.1489 14.8515 41.0667 14.9535 41.5698 15.5824C42.0729 16.2113 41.971 17.129 41.342 17.6321L39.5854 19.0375L41.5325 21.5409L42.2801 20.0458C42.527 19.5517 43.0321 19.2396 43.5845 19.2396H46.7378C47.5433 19.2396 48.1962 19.8925 48.1962 20.698C48.1962 21.5034 47.5433 22.1563 46.7378 22.1563H44.4857L44.0947 22.9383L46.5287 23.4792C46.6451 23.5051 46.7578 23.5451 46.8646 23.5985L48.9667 24.6496C49.6872 25.0097 49.9791 25.8857 49.6191 26.6061C49.2589 27.3265 48.3828 27.6185 47.6624 27.2583L45.7208 26.2875L41.1658 25.2753C40.8346 25.2016 40.5393 25.0148 40.3311 24.747L36.9941 20.4566L32.9497 19.7213C32.8911 19.7696 32.8281 19.8136 32.7612 19.853L31.9035 21.568V22.393H33.5987C33.825 22.393 34.0483 22.4458 34.2508 22.547L38.4554 24.6493C39.1758 25.0095 39.4677 25.8854 39.1075 26.6058C38.7473 27.3263 37.8713 27.6182 37.151 27.258L33.2544 25.3097H31.9035V27.5307C31.9035 28.336 31.2506 28.989 30.4452 28.989C29.6397 28.989 28.9868 28.336 28.9868 27.5307V23.8626V23.8513V23.8403V22.6822H27.1909L22.5951 25.6067L23.3809 29.9284L27.7352 33.7986C28.0464 34.0754 28.2246 34.4721 28.2246 34.8886V46.18H30.3211V40.9796C30.3211 37.0395 32.522 34.6211 33.7241 33.4762C34.6856 32.5602 36.1299 31.788 36.7319 31.5165C36.8515 31.2487 37.2594 30.5538 37.9339 29.9158C38.6083 29.2778 39.3086 28.6132 39.5745 28.3606C41.3798 29.3924 42.7817 30.4284 42.7817 30.4284C42.7817 30.4284 44.6501 30.3259 45.499 29.9842C46.178 29.7108 47.3617 28.9511 47.8688 28.6055L49.63 29.6696Z" fill="#E9F7F8" fill-opacity="0.85"/>
<path d="M21.875 55.4167H33.5417V52.5H21.875V55.4167Z" fill="#E9F7F8" fill-opacity="0.85"/>
<path d="M33.5417 61.25H21.875V58.3334H33.5417V61.25Z" fill="#E9F7F8" fill-opacity="0.85"/>
</svg>
