<svg width="70" height="70" viewBox="0 0 70 70" fill="none" xmlns="http://www.w3.org/2000/svg">
<path fill-rule="evenodd" clip-rule="evenodd" d="M56.875 11.6667H13.125C12.3196 11.6667 11.6667 12.3196 11.6667 13.125V56.875C11.6667 57.6804 12.3196 58.3333 13.125 58.3333H56.875C57.6804 58.3333 58.3333 57.6804 58.3333 56.875V13.125C58.3333 12.3196 57.6804 11.6667 56.875 11.6667ZM13.125 8.75C10.7088 8.75 8.75 10.7088 8.75 13.125V56.875C8.75 59.2913 10.7088 61.25 13.125 61.25H56.875C59.2913 61.25 61.25 59.2913 61.25 56.875V13.125C61.25 10.7088 59.2913 8.75 56.875 8.75H13.125Z" fill="#E9F7F8" fill-opacity="0.85"/>
<path fill-rule="evenodd" clip-rule="evenodd" d="M26.858 16.0129C25.9792 15.8484 25.1562 16.5153 25.1562 17.4094C25.1562 18.1886 24.5245 18.8204 23.7453 18.8204H23.3333C22.5279 18.8204 21.875 19.4733 21.875 20.2787V21.5533C21.875 22.3586 22.5279 23.0116 23.3333 23.0116H23.6979C24.5034 23.0116 25.1562 23.6645 25.1562 24.47V25.0212C25.1562 25.6881 25.6108 26.2723 26.2593 26.4279C33.07 28.063 37.2441 28.0646 43.7564 26.4359C44.3975 26.2757 44.8438 25.6951 44.8438 25.0342V24.47C44.8438 23.6645 45.4966 23.0116 46.3021 23.0116H46.6667C47.4721 23.0116 48.125 22.3586 48.125 21.5533V20.2787C48.125 19.4733 47.4721 18.8204 46.6667 18.8204H46.2528C45.4746 18.8204 44.8438 18.1897 44.8438 17.4115C44.8438 16.5171 44.0195 15.8509 43.1407 16.0167C37.0271 17.1701 32.9706 17.1564 26.858 16.0129ZM29.8958 20.0342C29.8958 19.2287 29.2429 18.5758 28.4375 18.5758C27.6321 18.5758 26.9792 19.2287 26.9792 20.0342V23.3011C26.9792 24.1065 27.6321 24.7594 28.4375 24.7594C29.2429 24.7594 29.8958 24.1065 29.8958 23.3011V20.0342Z" fill="#E9F7F8" fill-opacity="0.85"/>
<path fill-rule="evenodd" clip-rule="evenodd" d="M26.858 29.1379C25.9792 28.9734 25.1562 29.6403 25.1562 30.5344C25.1562 31.3136 24.5245 31.9454 23.7453 31.9454H23.3333C22.5279 31.9454 21.875 32.5983 21.875 33.4037V34.6783C21.875 35.4836 22.5279 36.1366 23.3333 36.1366H23.6979C24.5034 36.1366 25.1562 36.7895 25.1562 37.595V38.1462C25.1562 38.8131 25.6108 39.3973 26.2593 39.5529C33.07 41.188 37.2441 41.1896 43.7564 39.5609C44.3975 39.4007 44.8438 38.8201 44.8438 38.1592V37.595C44.8438 36.7895 45.4966 36.1366 46.3021 36.1366H46.6667C47.4721 36.1366 48.125 35.4836 48.125 34.6783V33.4037C48.125 32.5983 47.4721 31.9454 46.6667 31.9454H46.2528C45.4746 31.9454 44.8438 31.3147 44.8438 30.5365C44.8438 29.6421 44.0195 28.9759 43.1407 29.1417C37.0271 30.2951 32.9706 30.2814 26.858 29.1379ZM29.8958 33.1592C29.8958 32.3537 29.2429 31.7008 28.4375 31.7008C27.6321 31.7008 26.9792 32.3537 26.9792 33.1592V36.4261C26.9792 37.2315 27.6321 37.8844 28.4375 37.8844C29.2429 37.8844 29.8958 37.2315 29.8958 36.4261V33.1592Z" fill="#E9F7F8" fill-opacity="0.85"/>
<path fill-rule="evenodd" clip-rule="evenodd" d="M26.858 42.2629C25.9792 42.0984 25.1562 42.7653 25.1562 43.6594C25.1562 44.4386 24.5245 45.0704 23.7453 45.0704H23.3333C22.5279 45.0704 21.875 45.7233 21.875 46.5287V47.8033C21.875 48.6086 22.5279 49.2616 23.3333 49.2616H23.6979C24.5034 49.2616 25.1562 49.9145 25.1562 50.72V51.2712C25.1562 51.9381 25.6108 52.5223 26.2593 52.6779C33.07 54.313 37.2441 54.3146 43.7564 52.6859C44.3975 52.5257 44.8438 51.9451 44.8438 51.2842V50.72C44.8438 49.9145 45.4966 49.2616 46.3021 49.2616H46.6667C47.4721 49.2616 48.125 48.6086 48.125 47.8033V46.5287C48.125 45.7233 47.4721 45.0704 46.6667 45.0704H46.2528C45.4746 45.0704 44.8438 44.4397 44.8438 43.6615C44.8438 42.7671 44.0195 42.1009 43.1407 42.2667C37.0271 43.4201 32.9706 43.4064 26.858 42.2629ZM29.8958 46.2842C29.8958 45.4787 29.2429 44.8258 28.4375 44.8258C27.6321 44.8258 26.9792 45.4787 26.9792 46.2842V49.5511C26.9792 50.3566 27.6321 51.0094 28.4375 51.0094C29.2429 51.0094 29.8958 50.3566 29.8958 49.5511V46.2842Z" fill="#E9F7F8" fill-opacity="0.85"/>
</svg>
