<svg width="21" height="21" viewBox="0 0 21 21" fill="none" xmlns="http://www.w3.org/2000/svg">
<g clip-path="url(#clip0_847_538)">
<path d="M1.78906 4.43978C1.78906 3.98677 1.96902 3.55231 2.28935 3.23198C2.60968 2.91165 3.04414 2.73169 3.49716 2.73169H8.62144V18.1045H3.49716C3.04414 18.1045 2.60968 17.9246 2.28935 17.6042C1.96902 17.2839 1.78906 16.8495 1.78906 16.3964V4.43978ZM12.0376 2.73169H17.1619C17.6149 2.73169 18.0494 2.91165 18.3697 3.23198C18.69 3.55231 18.87 3.98677 18.87 4.43978V8.71002H12.0376V2.73169ZM12.0376 12.1262H18.87V16.3964C18.87 16.8495 18.69 17.2839 18.3697 17.6042C18.0494 17.9246 17.6149 18.1045 17.1619 18.1045H12.0376V12.1262Z" stroke="#0000AC" stroke-width="2.13512" stroke-linecap="round" stroke-linejoin="round"/>
</g>
<defs>
<clipPath id="clip0_847_538">
<rect width="20.4971" height="20.4971" fill="white" transform="translate(0.0810547 0.169434)"/>
</clipPath>
</defs>
</svg>
