<svg width="21" height="22" viewBox="0 0 21 22" fill="none" xmlns="http://www.w3.org/2000/svg">
<path d="M18.6563 3.84619H2.00235C1.64806 3.84619 1.36182 4.13243 1.36182 4.48673V17.2974C1.36182 17.6517 1.64806 17.938 2.00235 17.938H18.6563C19.0106 17.938 19.2968 17.6517 19.2968 17.2974V4.48673C19.2968 4.13243 19.0106 3.84619 18.6563 3.84619ZM17.8556 6.06404V16.4968H2.80302V6.06404L2.25056 5.63368L3.03722 4.62284L3.89393 5.2894H16.7667L17.6234 4.62284L18.4101 5.63368L17.8556 6.06404V6.06404ZM16.7667 5.2874L10.3293 10.2916L3.89193 5.2874L3.03521 4.62084L2.24856 5.63168L2.80102 6.06204L9.63873 11.3785C9.83537 11.5313 10.0773 11.6142 10.3263 11.6142C10.5753 11.6142 10.8172 11.5313 11.0139 11.3785L17.8556 6.06404L18.4081 5.63368L17.6214 4.62284L16.7667 5.2874Z" fill="#828282"/>
</svg>
