<svg width="21" height="21" viewBox="0 0 21 21" fill="none" xmlns="http://www.w3.org/2000/svg">
<path d="M18.5924 13.0208L17.2813 11.8999C17.3433 11.5196 17.3754 11.1312 17.3754 10.7429C17.3754 10.3546 17.3433 9.96626 17.2813 9.58594L18.5924 8.465C18.6913 8.38034 18.762 8.26759 18.7953 8.14173C18.8286 8.01587 18.8227 7.88287 18.7785 7.76041L18.7605 7.70837C18.3996 6.69958 17.8591 5.76442 17.1652 4.94806L17.1292 4.90603C17.045 4.80705 16.9328 4.7359 16.8074 4.70195C16.6819 4.66801 16.5492 4.67286 16.4266 4.71587L14.7992 5.29435C14.1987 4.80194 13.5281 4.41362 12.8035 4.14139L12.4893 2.43997C12.4656 2.31195 12.4035 2.19417 12.3112 2.10228C12.219 2.0104 12.101 1.94875 11.9728 1.92554L11.9188 1.91553C10.8759 1.72737 9.77901 1.72737 8.73614 1.91553L8.6821 1.92554C8.55399 1.94875 8.43597 2.0104 8.34372 2.10228C8.25148 2.19417 8.18938 2.31195 8.16567 2.43997L7.8494 4.1494C7.13058 4.42168 6.46118 4.8098 5.86775 5.29836L4.22838 4.71587C4.10581 4.67252 3.97295 4.66749 3.84745 4.70146C3.72196 4.73542 3.60977 4.80678 3.52579 4.90603L3.48976 4.94806C2.79668 5.765 2.25628 6.7 1.89443 7.70837L1.87641 7.76041C1.78634 8.01062 1.8604 8.29086 2.06257 8.465L3.38968 9.59795C3.32763 9.97426 3.2976 10.3586 3.2976 10.7409C3.2976 11.1252 3.32763 11.5095 3.38968 11.8839L2.06257 13.0168C1.96368 13.1015 1.8929 13.2142 1.85965 13.3401C1.8264 13.4659 1.83224 13.5989 1.87641 13.7214L1.89443 13.7734C2.25673 14.7823 2.79318 15.7131 3.48976 16.5337L3.52579 16.5758C3.60997 16.6748 3.72216 16.7459 3.84759 16.7799C3.97301 16.8138 4.10577 16.8089 4.22838 16.7659L5.86775 16.1834C6.46425 16.6739 7.1308 17.0622 7.8494 17.3324L8.16567 19.0418C8.18938 19.1699 8.25148 19.2876 8.34372 19.3795C8.43597 19.4714 8.55399 19.5331 8.6821 19.5563L8.73614 19.5663C9.7886 19.7554 10.8663 19.7554 11.9188 19.5663L11.9728 19.5563C12.101 19.5331 12.219 19.4714 12.3112 19.3795C12.4035 19.2876 12.4656 19.1699 12.4893 19.0418L12.8035 17.3404C13.5279 17.0689 14.2022 16.6793 14.7992 16.1875L16.4266 16.7659C16.5491 16.8093 16.682 16.8143 16.8075 16.7803C16.933 16.7464 17.0452 16.675 17.1292 16.5758L17.1652 16.5337C17.8618 15.7111 18.3982 14.7823 18.7605 13.7734L18.7785 13.7214C18.8686 13.4752 18.7945 13.195 18.5924 13.0208V13.0208ZM15.8601 9.82214C15.9101 10.1244 15.9362 10.4346 15.9362 10.7449C15.9362 11.0552 15.9101 11.3654 15.8601 11.6677L15.728 12.4703L17.2232 13.7494C16.9966 14.2716 16.7104 14.766 16.3705 15.2226L14.513 14.5641L13.8844 15.0805C13.406 15.4729 12.8736 15.7811 12.2971 15.9973L11.5345 16.2835L11.1762 18.2252C10.6109 18.2892 10.0401 18.2892 9.47476 18.2252L9.11646 16.2795L8.35983 15.9893C7.78935 15.7731 7.25891 15.4648 6.78451 15.0745L6.15599 14.5561L4.28643 15.2206C3.94614 14.7623 3.66191 14.2678 3.43372 13.7474L4.94498 12.4563L4.81487 11.6557C4.76683 11.3574 4.74081 11.0492 4.74081 10.7449C4.74081 10.4387 4.76483 10.1324 4.81487 9.83415L4.94498 9.03348L3.43372 7.7424C3.6599 7.21996 3.94614 6.72755 4.28643 6.26917L6.15599 6.93372L6.78451 6.41529C7.25891 6.02496 7.78935 5.71671 8.35983 5.50053L9.11846 5.21429L9.47676 3.26866C10.0392 3.20461 10.6137 3.20461 11.1782 3.26866L11.5365 5.21028L12.2991 5.49652C12.8736 5.7127 13.408 6.02096 13.8864 6.41329L14.515 6.92972L16.3725 6.27117C16.7128 6.72955 16.997 7.22397 17.2252 7.7444L15.73 9.02347L15.8601 9.82214ZM10.3295 7.0218C8.38385 7.0218 6.80653 8.59911 6.80653 10.5447C6.80653 12.4904 8.38385 14.0677 10.3295 14.0677C12.2751 14.0677 13.8524 12.4904 13.8524 10.5447C13.8524 8.59911 12.2751 7.0218 10.3295 7.0218ZM11.9148 12.1301C11.7069 12.3386 11.4598 12.5039 11.1877 12.6166C10.9156 12.7293 10.624 12.7871 10.3295 12.7866C9.73097 12.7866 9.1685 12.5524 8.74415 12.1301C8.53562 11.9221 8.37027 11.675 8.25759 11.403C8.14491 11.1309 8.08714 10.8392 8.0876 10.5447C8.0876 9.94624 8.3218 9.38377 8.74415 8.95941C9.1685 8.53506 9.73097 8.30287 10.3295 8.30287C10.928 8.30287 11.4904 8.53506 11.9148 8.95941C12.1233 9.16734 12.2887 9.41445 12.4014 9.68652C12.514 9.9586 12.5718 10.2503 12.5713 10.5447C12.5713 11.1432 12.3372 11.7057 11.9148 12.1301Z" fill="#828282"/>
</svg>
