<svg width="21" height="22" viewBox="0 0 21 22" fill="none" xmlns="http://www.w3.org/2000/svg">
<g clip-path="url(#clip0_847_554)">
<path d="M19.2971 18.46C19.2971 18.46 20.5782 18.46 20.5782 17.1789C20.5782 15.8979 19.2971 12.0546 14.1728 12.0546C9.04854 12.0546 7.76747 15.8979 7.76747 17.1789C7.76747 18.46 9.04854 18.46 9.04854 18.46H19.2971ZM9.07673 17.1789C9.06726 17.1776 9.05786 17.1759 9.04854 17.1738C9.04983 16.8356 9.26248 15.8543 10.0222 14.9704C10.7293 14.1415 11.9719 13.3357 14.1728 13.3357C16.3724 13.3357 17.6151 14.1428 18.3235 14.9704C19.0832 15.8543 19.2945 16.8369 19.2971 17.1738L19.2869 17.1764C19.2809 17.1774 19.2749 17.1782 19.2689 17.1789H9.07673V17.1789ZM14.1728 9.49251C14.8523 9.49251 15.504 9.22257 15.9845 8.74207C16.465 8.26158 16.735 7.60989 16.735 6.93037C16.735 6.25085 16.465 5.59916 15.9845 5.11866C15.504 4.63817 14.8523 4.36823 14.1728 4.36823C13.4933 4.36823 12.8416 4.63817 12.3611 5.11866C11.8806 5.59916 11.6107 6.25085 11.6107 6.93037C11.6107 7.60989 11.8806 8.26158 12.3611 8.74207C12.8416 9.22257 13.4933 9.49251 14.1728 9.49251ZM18.016 6.93037C18.016 7.43507 17.9166 7.93482 17.7235 8.4011C17.5303 8.86738 17.2473 9.29105 16.8904 9.64793C16.5335 10.0048 16.1098 10.2879 15.6436 10.481C15.1773 10.6742 14.6775 10.7736 14.1728 10.7736C13.6681 10.7736 13.1684 10.6742 12.7021 10.481C12.2358 10.2879 11.8121 10.0048 11.4553 9.64793C11.0984 9.29105 10.8153 8.86738 10.6222 8.4011C10.429 7.93482 10.3296 7.43507 10.3296 6.93037C10.3296 5.91109 10.7345 4.93355 11.4553 4.21281C12.176 3.49207 13.1535 3.08716 14.1728 3.08716C15.1921 3.08716 16.1696 3.49207 16.8904 4.21281C17.6111 4.93355 18.016 5.91109 18.016 6.93037V6.93037ZM8.96656 12.4133C8.4541 12.252 7.92586 12.1459 7.39084 12.0969C7.09021 12.0683 6.78839 12.0542 6.4864 12.0546C1.36212 12.0546 0.0810547 15.8979 0.0810547 17.1789C0.0810547 18.0334 0.507651 18.46 1.36212 18.46H6.76312C6.5732 18.0601 6.47849 17.6216 6.4864 17.1789C6.4864 15.885 6.96937 14.563 7.88277 13.4587C8.19407 13.0821 8.55661 12.7298 8.96656 12.4133ZM6.38392 13.3357C5.62572 14.4749 5.21615 15.8105 5.20533 17.1789H1.36212C1.36212 16.8458 1.57222 15.8594 2.33574 14.9704C3.03392 14.1556 4.24709 13.3613 6.38392 13.337V13.3357ZM2.00266 7.5709C2.00266 6.55162 2.40757 5.57409 3.12831 4.85334C3.84905 4.1326 4.82659 3.72769 5.84587 3.72769C6.86515 3.72769 7.84269 4.1326 8.56343 4.85334C9.28417 5.57409 9.68908 6.55162 9.68908 7.5709C9.68908 8.59019 9.28417 9.56772 8.56343 10.2885C7.84269 11.0092 6.86515 11.4141 5.84587 11.4141C4.82659 11.4141 3.84905 11.0092 3.12831 10.2885C2.40757 9.56772 2.00266 8.59019 2.00266 7.5709V7.5709ZM5.84587 5.00876C5.16635 5.00876 4.51466 5.2787 4.03416 5.7592C3.55367 6.23969 3.28373 6.89138 3.28373 7.5709C3.28373 8.25042 3.55367 8.90212 4.03416 9.38261C4.51466 9.8631 5.16635 10.133 5.84587 10.133C6.52539 10.133 7.17708 9.8631 7.65758 9.38261C8.13807 8.90212 8.40801 8.25042 8.40801 7.5709C8.40801 6.89138 8.13807 6.23969 7.65758 5.7592C7.17708 5.2787 6.52539 5.00876 5.84587 5.00876Z" fill="#828282"/>
</g>
<defs>
<clipPath id="clip0_847_554">
<rect width="20.4971" height="20.4971" fill="white" transform="translate(0.0810547 0.524902)"/>
</clipPath>
</defs>
</svg>
