<svg width="21" height="21" viewBox="0 0 21 21" fill="none" xmlns="http://www.w3.org/2000/svg">
<path d="M4.35116 19.1954H16.3078C17.2498 19.1954 18.0159 18.4294 18.0159 17.4873V4.67664C18.0159 3.73463 17.2498 2.96855 16.3078 2.96855H14.5997C14.5997 2.74204 14.5097 2.52481 14.3496 2.36465C14.1894 2.20448 13.9722 2.1145 13.7457 2.1145H6.9133C6.68679 2.1145 6.46956 2.20448 6.3094 2.36465C6.14923 2.52481 6.05925 2.74204 6.05925 2.96855H4.35116C3.40915 2.96855 2.64307 3.73463 2.64307 4.67664V17.4873C2.64307 18.4294 3.40915 19.1954 4.35116 19.1954ZM4.35116 4.67664H6.05925V6.38474H14.5997V4.67664H16.3078V17.4873H4.35116V4.67664Z" fill="#828282"/>
<path d="M9.47526 12.0094L7.94395 10.4781L6.73633 11.6857L9.47526 14.4247L13.9223 9.97764L12.7147 8.77002L9.47526 12.0094Z" fill="#828282"/>
</svg>
