<svg width="21" height="22" viewBox="0 0 21 22" fill="none" xmlns="http://www.w3.org/2000/svg">
<path d="M9.47548 20.7617V17.6871C5.19671 17.465 1.78906 13.9122 1.78906 9.58219C1.78906 5.10699 5.4273 1.46875 9.90251 1.46875C14.3777 1.46875 18.0159 5.10699 18.0159 9.58219C18.0159 13.8097 15.078 18.0629 10.6968 20.1724L9.47548 20.7617ZM9.90251 3.17684C6.36675 3.17684 3.49716 6.04644 3.49716 9.58219C3.49716 13.1179 6.36675 15.9875 9.90251 15.9875H11.1836V17.9518C14.2923 15.9875 16.3079 12.7592 16.3079 9.58219C16.3079 6.04644 13.4383 3.17684 9.90251 3.17684ZM9.04846 12.9984H10.7566V14.7065H9.04846V12.9984ZM10.7566 11.7173H9.04846C9.04846 8.94166 11.6106 9.15517 11.6106 7.44708C11.6106 6.50763 10.842 5.73898 9.90251 5.73898C8.96305 5.73898 8.19441 6.50763 8.19441 7.44708H6.48632C6.48632 5.55963 8.01506 4.03089 9.90251 4.03089C11.7899 4.03089 13.3187 5.55963 13.3187 7.44708C13.3187 9.58219 10.7566 9.7957 10.7566 11.7173Z" fill="#828282"/>
</svg>
