<svg width="21" height="21" viewBox="0 0 21 21" fill="none" xmlns="http://www.w3.org/2000/svg">
<path d="M16.3079 3.70419H14.5998V2.85014C14.5998 2.62363 14.5098 2.4064 14.3496 2.24624C14.1895 2.08607 13.9722 1.99609 13.7457 1.99609C13.5192 1.99609 13.302 2.08607 13.1418 2.24624C12.9816 2.4064 12.8917 2.62363 12.8917 2.85014V3.70419H7.76739V2.85014C7.76739 2.62363 7.67741 2.4064 7.51724 2.24624C7.35708 2.08607 7.13985 1.99609 6.91334 1.99609C6.68684 1.99609 6.46961 2.08607 6.30944 2.24624C6.14928 2.4064 6.0593 2.62363 6.0593 2.85014V3.70419H4.3512C3.67168 3.70419 3.01999 3.97413 2.5395 4.45462C2.059 4.93511 1.78906 5.58681 1.78906 6.26633V16.5149C1.78906 17.1944 2.059 17.8461 2.5395 18.3266C3.01999 18.8071 3.67168 19.077 4.3512 19.077H16.3079C16.9874 19.077 17.6391 18.8071 18.1196 18.3266C18.6001 17.8461 18.87 17.1944 18.87 16.5149V6.26633C18.87 5.58681 18.6001 4.93511 18.1196 4.45462C17.6391 3.97413 16.9874 3.70419 16.3079 3.70419V3.70419ZM17.1619 16.5149C17.1619 16.7414 17.0719 16.9586 16.9118 17.1188C16.7516 17.279 16.5344 17.3689 16.3079 17.3689H4.3512C4.1247 17.3689 3.90747 17.279 3.7473 17.1188C3.58714 16.9586 3.49716 16.7414 3.49716 16.5149V10.5366H17.1619V16.5149ZM17.1619 8.82847H3.49716V6.26633C3.49716 6.03982 3.58714 5.82259 3.7473 5.66242C3.90747 5.50226 4.1247 5.41228 4.3512 5.41228H6.0593V6.26633C6.0593 6.49283 6.14928 6.71006 6.30944 6.87023C6.46961 7.03039 6.68684 7.12037 6.91334 7.12037C7.13985 7.12037 7.35708 7.03039 7.51724 6.87023C7.67741 6.71006 7.76739 6.49283 7.76739 6.26633V5.41228H12.8917V6.26633C12.8917 6.49283 12.9816 6.71006 13.1418 6.87023C13.302 7.03039 13.5192 7.12037 13.7457 7.12037C13.9722 7.12037 14.1895 7.03039 14.3496 6.87023C14.5098 6.71006 14.5998 6.49283 14.5998 6.26633V5.41228H16.3079C16.5344 5.41228 16.7516 5.50226 16.9118 5.66242C17.0719 5.82259 17.1619 6.03982 17.1619 6.26633V8.82847Z" fill="#828282"/>
</svg>
